<svg width="23" height="16" viewBox="0 0 23 16" fill="none" xmlns="http://www.w3.org/2000/svg">
<g clip-path="url(#clip0_140_2674)">
<path d="M0 0.5H23V15.5002H0V0.5Z" fill="white"/>
<path d="M12.9375 0.499512H10.0625V6.59324H0V9.40574H10.0625V15.4995H12.9375V9.40574H23V6.59324H12.9375V0.499512Z" fill="#D80027"/>
<path d="M17.6896 10.6086L23 13.4948V10.6086H17.6896ZM14 10.6086L23 15.4999V14.1168L16.545 10.6086H14ZM20.6027 15.4999L14 11.9112V15.4999H20.6027Z" fill="#0052B4"/>
<path d="M14 10.6086L23 15.4999V14.1168L16.545 10.6086H14Z" fill="white"/>
<path d="M14 10.6086L23 15.4999V14.1168L16.545 10.6086H14Z" fill="#D80027"/>
<path d="M4.05829 10.6084L0 12.814V10.6084H4.05829ZM9.00001 11.2304V15.4997H1.1451L9.00001 11.2304Z" fill="#0052B4"/>
<path d="M6.45496 10.6086L0 14.1168V15.4999L9.00001 10.6086H6.45496Z" fill="#D80027"/>
<path d="M5.31044 5.39105L0 2.50489V5.39105H5.31044ZM9.00001 5.39105L0 0.499756V1.88289L6.45496 5.39105H9.00001ZM2.3973 0.499756L9.00001 4.08851V0.499756H2.3973Z" fill="#0052B4"/>
<path d="M9.00001 5.39081L0 0.499512V1.88265L6.45496 5.39081H9.00001Z" fill="white"/>
<path d="M9.00001 5.39081L0 0.499512V1.88265L6.45496 5.39081H9.00001Z" fill="#D80027"/>
<path d="M18.9417 5.39134L23 3.18572V5.39134H18.9417ZM14 4.76934V0.5H21.8549L14 4.76934Z" fill="#0052B4"/>
<path d="M16.545 5.39105L23 1.88289V0.499756L14 5.39105H16.545Z" fill="#D80027"/>
</g>
<defs>
<clipPath id="clip0_140_2674">
<rect y="0.5" width="23" height="15" rx="2" fill="white"/>
</clipPath>
</defs>
</svg>
