<svg width="22" height="16" viewBox="0 0 22 16" fill="none" xmlns="http://www.w3.org/2000/svg">
<g clip-path="url(#clip0_140_2678)">
<path d="M0 13.5385C0 14.1913 0.257539 14.8174 0.715961 15.279C1.17438 15.7407 1.79614 16 2.44444 16H19.5556C20.2039 16 20.8256 15.7407 21.284 15.279C21.7425 14.8174 22 14.1913 22 13.5385V11.6923H0V13.5385ZM19.5556 0H2.44444C1.79614 0 1.17438 0.25934 0.715961 0.720968C0.257539 1.1826 0 1.8087 0 2.46154L0 4.30769H22V2.46154C22 1.8087 21.7425 1.1826 21.284 0.720968C20.8256 0.25934 20.2039 0 19.5556 0Z" fill="#CE1126"/>
<path d="M0 12H22V4H0V12ZM11 4.66667C11.4013 4.66671 11.7987 4.75298 12.1694 4.92055C12.5401 5.08813 12.877 5.33372 13.1607 5.64331C13.4445 5.9529 13.6695 6.32043 13.8231 6.7249C13.9766 7.12938 14.0556 7.56288 14.0556 8.00067C14.0555 8.43845 13.9764 8.87194 13.8228 9.27638C13.6692 9.68082 13.4441 10.0483 13.1603 10.3578C12.8765 10.6674 12.5396 10.9129 12.1688 11.0804C11.7981 11.2479 11.4007 11.334 10.9994 11.334C10.1889 11.3339 9.41169 10.9826 8.83866 10.3574C8.26563 9.73211 7.94375 8.88414 7.94383 8C7.94391 7.11586 8.26595 6.26796 8.83909 5.64284C9.41223 5.01772 10.1895 4.66658 11 4.66667Z" fill="#002868"/>
<path d="M11 12C13.2091 12 15 10.2091 15 8C15 5.79086 13.2091 4 11 4C8.79086 4 7 5.79086 7 8C7 10.2091 8.79086 12 11 12Z" fill="white"/>
</g>
<defs>
<clipPath id="clip0_140_2678">
<rect width="22" height="16" fill="white"/>
</clipPath>
</defs>
</svg>
